<svg version="1.1" id="Layer_1_logo" xmlns="http://www.w3.org/2000/svg" xmlns:xlink="http://www.w3.org/1999/xlink" x="0px" y="0px"
	 viewBox="0 0 235 66.5" style="enable-background:new 0 0 235 66.5;" xml:space="preserve">
<style type="text/css">
	.logo0{fill:#97876B;}
	.logo1{fill:#8A6731;}
	.logo2{fill:#D5D0B5;}
</style>
<g>
	<g>
		<path d="M107,49.3h4.2v0.9H107V49.3z"/>
		<path d="M121.3,55.2c-1,0-2.4-0.2-3.4-0.6l0.2-0.9c1.1,0.3,2.2,0.5,3.3,0.5c2.1,0,2.6-0.6,2.6-2.2c0-1.9,0-2.1-2.7-2.7
			c-3-0.7-3.3-1.2-3.3-3.7c0-2,0.7-3,3.8-3c1,0,2.3,0.2,3.2,0.4l-0.2,0.9c-0.9-0.2-2.1-0.4-3-0.4c-2.4,0-2.7,0.6-2.7,2.1
			c0,2,0.1,2.1,2.6,2.7c3.2,0.8,3.4,1.3,3.4,3.6C125,53.9,124.4,55.2,121.3,55.2z"/>
		<path d="M128.1,42.7h4.1c2.5,0,3.3,1.1,3.3,2.8v1.9c0,1.7-0.9,2.8-3.3,2.8h-3v4.6h-1.1L128.1,42.7L128.1,42.7z M132.3,43.7h-3.1
			v5.6h3.1c1.5,0,2.2-0.5,2.2-1.8v-1.9C134.5,44.2,133.8,43.7,132.3,43.7z"/>
		<path d="M142.1,55.2c-3.1,0-4.3-1.5-4.3-3.6v-5.3c0-2.1,1.1-3.6,4.3-3.6c3.1,0,4.3,1.5,4.3,3.6v5.3
			C146.3,53.6,145.2,55.2,142.1,55.2z M145.3,51.5v-5.3c0-1.8-0.9-2.7-3.2-2.7c-2.3,0-3.2,1-3.2,2.7v5.3c0,1.8,0.9,2.7,3.2,2.7
			C144.4,54.1,145.3,53.2,145.3,51.5z"/>
		<path d="M153.9,50.3h-0.2h-3.3V55h-1.1V42.8h4.3c2.5,0,3.3,1.1,3.3,2.8v1.8c0,1.4-0.6,2.3-2,2.7l3.3,4.9H157L153.9,50.3z
			 M153.7,43.7h-3.3v5.6h3.3c1.5,0,2.2-0.5,2.2-1.8v-1.8C156,44.2,155.2,43.7,153.7,43.7z"/>
		<path d="M162.6,43.7h-3.7v-1h8.6v1h-3.7v11.2h-1.1L162.6,43.7L162.6,43.7z"/>
		<path d="M172.5,55.2c-1,0-2.4-0.2-3.4-0.6l0.2-0.9c1.1,0.3,2.2,0.5,3.3,0.5c2.1,0,2.6-0.6,2.6-2.2c0-1.9,0-2.1-2.7-2.7
			c-3-0.7-3.3-1.2-3.3-3.7c0-2,0.7-3,3.8-3c1,0,2.3,0.2,3.2,0.4l-0.2,0.9c-0.9-0.2-2.1-0.4-3-0.4c-2.4,0-2.7,0.6-2.7,2.1
			c0,2,0.1,2.1,2.6,2.7c3.2,0.8,3.4,1.3,3.4,3.6C176.2,53.9,175.5,55.2,172.5,55.2z"/>
		<path d="M183.2,54.9V42.7h4.5c1.7,0,2.6,0.8,2.6,2.4v1.4c0,1-0.4,1.6-1.4,2c1,0.2,1.8,0.9,1.8,2.2v1.6c0,1.7-1.2,2.5-2.8,2.5
			L183.2,54.9L183.2,54.9z M189.4,45c0-0.9-0.5-1.3-1.5-1.3h-3.5v4.5h3.2c1.4,0,1.9-0.7,1.9-1.7L189.4,45L189.4,45z M189.8,50.9
			c0-1-0.6-1.8-2-1.8h-3.4V54h3.7c1.1,0,1.7-0.6,1.7-1.5L189.8,50.9L189.8,50.9z"/>
		<path d="M200.3,51.7h-5.7l-1.1,3.2h-1l4.2-12.2h1.6l4.2,12.2h-1L200.3,51.7z M195,50.8h5l-2.5-7.4L195,50.8z"/>
		<path d="M209.4,50.3h-0.2h-3.3V55h-1.1V42.8h4.3c2.5,0,3.3,1.1,3.3,2.8v1.8c0,1.4-0.6,2.3-2,2.7l3.3,4.9h-1.2L209.4,50.3z
			 M209.2,43.7h-3.3v5.6h3.3c1.5,0,2.2-0.5,2.2-1.8v-1.8C211.4,44.2,210.7,43.7,209.2,43.7z"/>
		<path d="M219.7,49.3h4.2v0.9h-4.2V49.3z"/>
	</g>
	<g>
		<path class="logo0" d="M117.8,28.4c0,3.5-2.5,7.1-9,7.1c-6.5,0-9-3.6-9-7.1v-9.6c0-3.5,2.5-7.1,9-7.1c6.5,0,9,3.6,9,7.1V28.4z
			 M112.6,19.3c0-1.8-1.1-3-3.7-3c-2.6,0-3.7,1.1-3.7,3V28c0,1.8,1.1,3,3.7,3c2.6,0,3.7-1.1,3.7-3V19.3z"/>
		<path class="logo0" d="M122.5,35.2V12h5.2v18.6h7.3c1,0,1.8,0.8,1.8,1.8v2.8L122.5,35.2L122.5,35.2z"/>
		<path class="logo0" d="M146,28.5v6.7h-5.2v-6.7L133.6,12h4.2c0.7,0,1.4,0.5,1.7,1.1l3.9,9.6l4.4-10.8h5.5L146,28.5z"/>
		<path class="logo0" d="M161.2,22.3l-0.3,11.1c0,1-0.8,1.8-1.8,1.8h-3.3l1-23.2h5.2l5.6,14.8l5.6-14.8h5.2l1,23.2h-4.9l-0.3-12.8
			l-4.1,9.9h-4.6L161.2,22.3z"/>
		<path class="logo0" d="M193.3,28.2h-4v5.2c0,1-0.8,1.8-1.8,1.8H184V12h9.5c5.7,0,7.7,2.2,7.7,6.5v3C201.3,26,199,28.2,193.3,28.2z
			 M196.1,19.1c0-1.7-0.6-2.5-2.8-2.5h-4v7h4c2.3,0,2.8-0.9,2.8-2.6V19.1z"/>
		<path class="logo0" d="M204.6,35.2V13.9c0-1,0.8-1.8,1.8-1.8h3.4v23.2L204.6,35.2L204.6,35.2z"/>
		<path class="logo0" d="M235,35.2h-5.4l-1.3-4.5h-7.7l-0.9,3.2c-0.2,0.8-1,1.4-1.8,1.4h-4.1L221,12h6.9L235,35.2z M221.8,26.4h5.3
			l-2.6-9.7L221.8,26.4z"/>
	</g>
</g>
<g>
	<g>
		<path d="M33.3,63.1v-6.7l-1.6,0.9l-0.9-1.7l2.6-1.5h1.8v9H33.3z"/>
		<path d="M39.6,63.1h-2.1l3-7.3h-3.7v-1.8h5.8v1.7L39.6,63.1z"/>
	</g>
	<g>
		<path d="M32.9,17h2.9v1.8h-5.7v-1.7c1-1,1.2-1.2,2-2.2c1.4-1.6,1.5-1.7,1.5-2.6v-0.2c0-0.5-0.3-0.6-1.1-0.6
			c-0.6,0-1.7,0.1-2.3,0.2L30,10c0.9-0.2,1.8-0.4,2.6-0.4c2.2,0,3,0.6,3,2.2c0,0,0,0.3,0,0.4c0,1.4,0,1.6-1.3,3.1
			C33.7,16.2,33.3,16.6,32.9,17z"/>
		<path d="M43.5,16.5c0,1.4-0.7,2.5-3.1,2.5c-2.4,0-3.1-1-3.1-2.5v-4.4c0-1.4,0.7-2.5,3.1-2.5c2.4,0,3.1,1,3.1,2.5V16.5z M39.4,16.2
			c0,0.7,0.2,1,1,1c0.9,0,1-0.3,1-1v-3.8c0-0.7-0.2-1-1-1c-0.9,0-1,0.3-1,1V16.2z"/>
	</g>
	<path d="M1.2,54.8c0,0-0.2,0.4-0.4,1c-0.1,0.2-0.2,0.4-0.2,0.6v0.1v0.1l0,0v0.1c0,0.1,0,0.1-0.1,0.2v0.1c0,0.1,0,0.1-0.1,0.2
		c0,0.1-0.1,0.2-0.1,0.3c0,0.1,0,0.1-0.1,0.2c0,0.1,0,0.1,0,0.2s0,0.2-0.1,0.3c0,0.2-0.1,0.4-0.1,0.6c0,0.5,0,1,0.1,1.4
		c0.1,0.5,0.2,1,0.4,1.6c0.2,0.6,0.5,1,0.8,1.6c0.3,0.5,0.8,1,1.3,1.4l0.2,0.1l0.1,0.1L2.9,65c0.2,0.1,0.3,0.2,0.5,0.3
		c0.1,0.1,0.2,0.1,0.2,0.2c0.1,0.1,0.2,0.1,0.2,0.2c0.2,0.1,0.3,0.2,0.5,0.2c0.6,0.3,1.4,0.5,2.1,0.6c0.7,0.1,1.5,0.1,2.3,0
		c0.8-0.2,1.5-0.4,2.2-0.8c0.2-0.1,0.3-0.2,0.6-0.3c0.2-0.1,0.3-0.2,0.5-0.4c0.2-0.2,0.3-0.2,0.5-0.4l0.2-0.2l0.2-0.2
		c1.7-1.7,3.4-3.5,5.3-5.5c1-1,1.8-1.9,2.9-3c0.1-0.1,0.1-0.1,0.2-0.2c0.4-0.4,0.8-0.8,1.2-1.2c0.2-0.2,0.2-0.2,0.4-0.4
		c0.5-0.5,1-1,1.4-1.4c3.5-3.6,7.3-7.4,11-11.3l0,0c0.6-0.6,1.3-1.3,1.9-2c3.7-3.7,7.3-7.4,10.8-11c0.7-0.7,1.4-1.4,2.1-2.2L50,26
		c1-1,2.1-2.1,3-3.1c0.5-0.5,1-1,1.5-1.5c0.5-0.5,1-1,1.4-1.4c1.9-1.9,3.7-3.7,5.3-5.4c0.4-0.4,0.8-0.8,1.2-1.2
		c1.2-1.2,2.3-2.3,3.3-3.3c1-1,1.9-1.9,2.7-2.7c0.2-0.2,0.6-0.6,0.8-0.8C69.6,6.2,69.8,6,70,5.8c0.5-0.5,0.8-0.8,1.2-1.2l0.1-0.1
		c0.1-0.1,0.2-0.2,0.2-0.2l2-0.9c0.4-0.2,0.5-0.6,0.2-1l-1.2-1.2l-1.2-1.2c-0.2-0.2-0.7-0.2-1,0.2l-0.9,2c-0.5,0.5-1.2,1.2-2.1,2.1
		c-1,1-2.2,2.2-3.5,3.5c-1.4,1.4-2.9,2.9-4.5,4.5c-1.7,1.7-3.5,3.4-5.4,5.3c-1,1-1.9,1.9-3,3c-1,1-2.1,2-3.1,3
		c-1.1,1-2.2,2.2-3.3,3.2l0,0c-3.2,3.2-6.5,6.5-9.9,9.7c-0.9,0.9-1.8,1.8-2.7,2.6l0,0c-0.1,0.1-0.2,0.2-0.2,0.2
		c-0.9,0.9-1.8,1.7-2.6,2.6c-2.6,2.6-5.2,5.1-7.7,7.5c-0.5,0.5-1,1-1.5,1.4c-0.2,0.2-0.3,0.3-0.5,0.4c-0.4,0.3-0.7,0.7-1.1,1
		c-0.2,0.2-0.3,0.3-0.5,0.5c-0.5,0.4-0.9,0.9-1.4,1.3c-0.1,0.1-0.2,0.2-0.2,0.2l0,0c-0.3,0.3-0.7,0.6-1,1c-1.9,1.9-3.7,3.7-5.5,5.3
		L9.5,61l-0.1,0.1c-0.1,0.1-0.1,0.1-0.2,0.2c-0.1,0.1-0.2,0.1-0.2,0.2c-0.1,0-0.2,0.1-0.2,0.1c-0.2,0.2-0.6,0.2-0.9,0.2
		c-0.3,0-0.6,0-0.9,0c-0.2-0.1-0.6-0.2-0.7-0.2c-0.1,0-0.1-0.1-0.2-0.1l-0.1-0.1c0,0-0.1,0-0.1-0.1L6,61.1l0,0L6,61.1L5.8,61
		c-0.2-0.2-0.3-0.3-0.4-0.6c-0.1-0.2-0.2-0.4-0.2-0.6s-0.1-0.4-0.1-0.6c0-0.2,0-0.3,0-0.5c0-0.1,0-0.2,0-0.2v-0.1v-0.1l0,0
		c0,0,0,0,0-0.1l0,0l0,0v-0.1c0-0.1,0.1-0.1,0.1-0.2V58l0,0c0,0,0-0.1,0,0.1l0,0V58c0.1-0.2,0.2-0.4,0.2-0.6c0.3-0.7,0.4-1,0.4-1
		s0-0.1,0.1-0.1c0.5-1.4-0.2-2.8-1.5-3.3C3.1,52.8,1.6,53.5,1.2,54.8z"/>
	<path d="M72.6,54.8c0,0,0.2,0.4,0.4,1c0.1,0.2,0.2,0.4,0.2,0.6v0.1v0.1l0,0v0.1c0,0.1,0,0.1,0.1,0.2v0.1c0,0.1,0,0.1,0.1,0.2
		c0,0.1,0.1,0.2,0.1,0.3c0,0.1,0,0.1,0.1,0.2c0,0.1,0,0.1,0,0.2s0,0.2,0.1,0.3c0,0.2,0.1,0.4,0.1,0.6c0,0.5,0,1-0.1,1.4
		c-0.1,0.5-0.2,1-0.4,1.6c-0.2,0.6-0.5,1-0.8,1.6c-0.3,0.5-0.8,1-1.3,1.4L71,64.8L71,64.9L70.9,65c-0.2,0.1-0.3,0.2-0.5,0.3
		c-0.1,0.1-0.2,0.1-0.2,0.2c-0.1,0.1-0.2,0.1-0.2,0.2c-0.2,0.1-0.3,0.2-0.5,0.2c-0.6,0.3-1.4,0.5-2.1,0.6c-0.7,0.1-1.5,0.1-2.3,0
		c-0.8-0.2-1.5-0.4-2.2-0.8c-0.2-0.1-0.3-0.2-0.6-0.3c-0.2-0.1-0.3-0.2-0.5-0.4c-0.2-0.2-0.3-0.2-0.5-0.4l-0.2-0.2l-0.2-0.2
		c-1.7-1.7-3.4-3.5-5.3-5.5c-1-1-1.8-1.9-2.9-3c-0.1-0.1-0.1-0.1-0.2-0.2c-0.4-0.4-0.8-0.8-1.2-1.2c-0.2-0.2-0.2-0.2-0.4-0.4
		c-0.5-0.5-1-1-1.4-1.4c-3.5-3.6-7.3-7.4-11-11.3l0,0c-0.6-0.6-1.3-1.3-1.9-2c-3.7-3.7-7.3-7.4-10.8-11c-0.7-0.7-1.4-1.4-2.1-2.2
		L23.8,26c-1-1-2.1-2.1-3-3.1c-0.5-0.5-1-1-1.5-1.5c-0.5-0.5-1-1-1.4-1.4c-1.9-1.9-3.7-3.7-5.3-5.4c-0.4-0.4-0.8-0.8-1.2-1.2
		C10.1,12.1,9,11,8,9.9C6.9,8.9,6,8,5.2,7.2C5,7,4.7,6.7,4.4,6.4C4.2,6.2,4,6,3.8,5.8C3.3,5.3,3,5,2.6,4.6L2.5,4.5
		C2.4,4.4,2.4,4.4,2.4,4.4l-2-0.9C0,3.3-0.1,2.8,0.1,2.5l1.2-1.2l1.2-1.2c0.2-0.2,0.7-0.2,1,0.2l0.9,2c0.5,0.5,1.2,1.2,2.1,2.1
		c1,1,2.2,2.2,3.5,3.5c1.4,1.4,2.9,2.9,4.5,4.5c1.7,1.7,3.5,3.4,5.4,5.3c1,1,1.9,1.9,3,3c1,1,2.1,2,3.1,3c1.1,1,2.2,2.2,3.3,3.2l0,0
		c3.2,3.2,6.5,6.5,9.9,9.7c0.9,0.9,1.8,1.8,2.7,2.6l0,0c0.1,0.1,0.2,0.2,0.2,0.2c0.9,0.9,1.8,1.7,2.6,2.6c2.6,2.6,5.2,5.1,7.7,7.5
		c0.5,0.5,1,1,1.5,1.4c0.2,0.2,0.3,0.3,0.5,0.4c0.4,0.3,0.7,0.7,1.1,1c0.2,0.2,0.3,0.3,0.5,0.5c0.5,0.4,0.9,0.9,1.4,1.3
		c0.1,0.1,0.2,0.2,0.2,0.2l0,0c0.3,0.3,0.7,0.6,1,1c1.9,1.9,3.7,3.7,5.5,5.3l0.2,0.2l0.1,0.1c0.1,0.1,0.1,0.1,0.2,0.2
		c0.1,0.1,0.2,0.1,0.2,0.2c0.1,0,0.2,0.1,0.2,0.1c0.2,0.2,0.6,0.2,0.9,0.2c0.3,0,0.6,0,0.9,0c0.2-0.1,0.6-0.2,0.7-0.2
		c0.1,0,0.1-0.1,0.2-0.1l0.1-0.1c0,0,0.1,0,0.1-0.1l0.1-0.1l0,0l0.1-0.1L68,61c0.2-0.2,0.3-0.3,0.4-0.6c0.1-0.2,0.2-0.4,0.2-0.6
		c0.1-0.2,0.1-0.4,0.1-0.6c0-0.2,0-0.3,0-0.5c0-0.1,0-0.2,0-0.2v-0.1v-0.1l0,0c0,0,0,0,0-0.1l0,0l0,0v-0.1c0-0.1-0.1-0.1-0.1-0.2V58
		l0,0c0,0,0-0.1,0,0.1l0,0V58c-0.1-0.2-0.2-0.4-0.2-0.6c-0.3-0.7-0.4-1-0.4-1s0-0.1-0.1-0.1c-0.5-1.4,0.2-2.8,1.5-3.3
		C70.6,52.8,72.1,53.5,72.6,54.8z"/>
	<g>
		<path class="logo1" d="M11.2,29.2c-0.6,0-1.1,0.1-1.7,0.2c-0.1,0.2-0.5,1.1-0.5,2.4c0,0.5,0.1,0.9,0.2,1.4c2.7-1.6,5.3-1.2,6.9-0.6
			c0.8,0.3,1.4,0.6,1.9,1C16.8,30.9,14.2,29.2,11.2,29.2z"/>
		<path class="logo1" d="M9.5,39.8c0.6-0.8,1-1.7,1.2-2.8c-2.2-1.8-2.6-3.8-2.6-5.2c0-0.9,0.2-1.6,0.3-2.1c-1,0.4-2,1-2.7,1.8
			c-0.1,0.7-0.2,2.2,0.1,3.5C6.4,37.1,7.6,38.7,9.5,39.8z"/>
		<path class="logo1" d="M18.6,34.9c-0.3-0.2-1.3-1-2.7-1.6c-2.2-0.8-4.3-0.6-6.4,0.6c0.4,0.9,1,1.7,1.8,2.4c2.7-0.9,4.7-0.2,5.9,0.6
			c0.6,0.4,1.1,0.9,1.4,1.3c0.1-0.5,0.2-1,0.2-1.4C18.8,36.1,18.7,35.5,18.6,34.9z"/>
		<path class="logo1" d="M7.8,41.2C8.3,41,8.7,40.6,9,40.3c-2.6-1.4-3.5-3.7-3.9-5.3c-0.2-1-0.2-1.8-0.2-2.5c-0.8,1.2-1.3,2.6-1.3,4.1
			c0,2,0.8,3.7,2,5.1C6,41.9,6.8,41.8,7.8,41.2z"/>
		<path class="logo1" d="M18.4,39.2c-0.2-0.3-0.8-1-1.7-1.6c-0.4-0.2-0.9-0.5-1.4-0.6c0,3-1.5,5-2.8,6.1c-0.6,0.6-1.3,1-1.8,1.2
			c0.2,0,0.2,0,0.4,0C14.6,44.4,17.4,42.2,18.4,39.2z"/>
		<path class="logo1" d="M12,42.5c1.8-1.5,2.6-3.4,2.6-5.7c-1-0.2-1.9,0-3,0.3c-0.6,2.9-2.2,4.2-3.4,4.9c-0.7,0.4-1.4,0.6-1.8,0.6
			c0.9,0.7,1.8,1.2,3,1.5C9.7,44,10.9,43.5,12,42.5z"/>
	</g>
	<g>
		<path class="logo2" d="M59.9,40.9c0.1-0.6,0.2-1.2,0.6-1.8c0.4-0.6,1-1,1.7-1.2c0.7-0.2,1.5-0.3,2.2-0.4c0.8-0.1,1.6-0.2,2.4-0.6
			c1.1-0.5,1.8-1.4,1.8-2.6c0.1-0.8-0.1-1.5-0.3-2.3c0-0.1-0.1-0.2-0.2-0.2c-1.3-1.4-2.8-2.2-4.7-2.6c-0.4-0.1-0.8-0.1-1.1,0.2
			c-0.9,0.8-1.7,1.7-2.1,2.8c-0.2,0.6-0.4,1-0.6,1.6c-0.3,0.8-0.7,1.5-1.4,2.2c-0.4,0.4-0.9,0.6-1.4,0.6c-0.6,0-1.1-0.1-1.7-0.3
			c-0.2-0.1-0.3-0.2-0.5-0.2c-0.3,3.7,2.1,6.9,5.1,7.9c0-0.2,0-0.2-0.1-0.3C59.9,42.7,59.9,41.8,59.9,40.9z"/>
		<path class="logo2" d="M69.8,34.5c-0.2-0.4-0.3-0.8-0.5-1.2c0,0,0,0-0.1,0c0,0.1,0,0.1,0,0.2c0,0.4,0.1,0.7,0.1,1.1
			c0,0.6-0.1,1.3-0.4,1.8c-0.4,0.7-1.1,1.2-1.9,1.4c-0.6,0.2-1.1,0.2-1.8,0.2c-0.9,0.1-1.8,0.2-2.6,0.4c-0.6,0.2-1.1,0.4-1.6,0.9
			c-0.5,0.6-0.6,1.2-0.7,1.8c-0.1,1,0.1,1.8,0.2,2.7c0,0.1,0.1,0.2,0.2,0.2c0.4,0.1,0.9,0.2,1.3,0.2c3.7,0.2,7-2.4,7.8-6.1
			C70.3,37.1,70.2,35.8,69.8,34.5z"/>
		<path class="logo2" d="M56.6,36c0.8,0.2,1.4-0.2,1.9-0.8c0.4-0.5,0.6-1,0.8-1.5c0.2-0.6,0.4-1.2,0.6-1.8c0.2-0.6,0.5-1.2,0.8-1.8
			c0.2-0.3,0.4-0.6,0.6-1h-0.1c-1.5,0.2-2.8,0.9-3.9,1.9c-0.8,0.7-1.4,1.6-1.8,2.6c-0.2,0.5-0.3,1-0.5,1.4c0,0.1,0,0.2,0,0.2
			C55.6,35.7,56,35.9,56.6,36z"/>
	</g>
</g>
</svg>
